# xmcd
#
# Track frame offsets:
#	150
#	1745
#	12243
#	28743
#	45758
#	55021
#	71593
#	82293
#	95630
#	109465
#	124565
#	133365
#	146470
#	163600
#	178275
#
# Disc length: 2562 seconds
#
# Revision: 1
# Processed by: cddbd v1.4PL0 Copyright (c) Steve Scherf et al.
# Submitted via: EasyCDDAExtractor 5.1.0
#
DISCID=cc0a000f
DTITLE=Doug Moreland - Toast To Life
DYEAR=1999
DGENRE=country
TTITLE0=Whawasat
TTITLE1=Walking Through My Mind
TTITLE2=Heaven Or Austin
TTITLE3=You're In Dallas
TTITLE4=Dodge City
TTITLE5=I Need A Girl
TTITLE6=It Don't Hurt
TTITLE7=Snowy River
TTITLE8=Not Afraid To Fall In Love
TTITLE9=Houston (We've Got A Problem)
TTITLE10=Toast To Life
TTITLE11=South Of The Border
TTITLE12=Last Hero (A Tribute To Roy Rogers)
TTITLE13=Running Away
TTITLE14=Texas Thing
EXTD=
EXTT0=
EXTT1=
EXTT2=
EXTT3=
EXTT4=
EXTT5=
EXTT6=
EXTT7=
EXTT8=
EXTT9=
EXTT10=
EXTT11=
EXTT12=
EXTT13=
EXTT14=
PLAYORDER=
